<svg width="24" height="24" viewBox="0 0 24 24" fill="none" xmlns="http://www.w3.org/2000/svg">
<g clip-path="url(#clip0_418_1341)">
<path d="M0.75 5.65315C0.75 4.1719 1.95937 2.96252 3.44062 2.96252H20.55C22.0312 2.96252 23.2406 4.1719 23.2406 5.65315V20.55C23.2406 22.0313 22.0312 23.2407 20.55 23.2407H3.44062C1.95937 23.25 0.75 22.0407 0.75 20.5594V5.65315Z" fill="url(#paint0_linear_418_1341)"/>
<path d="M0.75 3.44063C0.75 1.95938 1.95938 0.75 3.44063 0.75H20.55C22.0406 0.75 23.25 1.95938 23.25 3.44063V18.3375C23.25 19.8188 22.0406 21.0281 20.5594 21.0281H3.44063C1.95938 21.0375 0.75 19.8281 0.75 18.3469V3.44063Z" fill="black"/>
<path opacity="0.15" d="M13.3032 11.2687L17.6532 6.21558H16.6219L12.8438 10.6031L9.82505 6.21558H6.34692L10.9032 12.8531L6.34692 18.15H7.37817L11.3625 13.5187L14.55 18.15H18.0282L13.3032 11.2687ZM11.8875 12.9187L11.4282 12.2531L7.7438 6.9937H9.32817L12.3 11.2406L12.7594 11.9062L16.6125 17.4187H15.0282L11.8875 12.9187Z" fill="#D1D1D1"/>
<path d="M13.1157 11.0812L17.4657 6.02808H16.4344L12.6563 10.4156L9.63755 6.02808H6.15942L10.7157 12.6656L6.15942 17.9625H7.19067L11.175 13.3312L14.3625 17.9625H17.8407L13.1157 11.0812ZM11.7 12.7312L11.2407 12.0656L7.5563 6.8062H9.14067L12.1125 11.0531L12.5719 11.7187L16.425 17.2312H14.8407L11.7 12.7312Z" fill="white"/>
</g>
<defs>
<linearGradient id="paint0_linear_418_1341" x1="0.75" y1="13.1066" x2="23.25" y2="13.1066" gradientUnits="userSpaceOnUse">
<stop/>
<stop offset="0.1183" stop-color="#333333"/>
<stop offset="0.2204" stop-color="#1A1A1A"/>
<stop offset="0.8226" stop-color="#1A1A1A"/>
<stop offset="0.9194" stop-color="#333333"/>
<stop offset="1"/>
</linearGradient>
<clipPath id="clip0_418_1341">
<rect width="24" height="24" fill="white"/>
</clipPath>
</defs>
</svg>
