<svg width="18" height="19" viewBox="0 0 18 19" fill="none" xmlns="http://www.w3.org/2000/svg">
<path d="M4.5 6.5C4.5 4.8425 5.8425 3.5 7.5 3.5C9.1575 3.5 10.5 4.8425 10.5 6.5C10.5 8.1575 9.1575 9.5 7.5 9.5C5.8425 9.5 4.5 8.1575 4.5 6.5ZM9 14.15C9 13.43 9.375 12.755 9.9 12.305V12.125C9.9 11.8325 9.9525 11.555 10.035 11.285C9.2625 11.105 8.4075 11 7.5 11C4.185 11 1.5 12.3425 1.5 14V15.5H9V14.15ZM16.5 14.225V16.85C16.5 17.3 16.05 17.75 15.525 17.75H11.4C10.95 17.75 10.5 17.3 10.5 16.775V14.15C10.5 13.7 10.95 13.25 11.4 13.25V12.125C11.4 11.075 12.45 10.25 13.5 10.25C14.55 10.25 15.6 11.075 15.6 12.125V13.25C16.05 13.25 16.5 13.7 16.5 14.225ZM14.625 12.125C14.625 11.525 14.1 11.15 13.5 11.15C12.9 11.15 12.375 11.525 12.375 12.125V13.25H14.625V12.125Z" fill="#00011B"/>
</svg>
