<svg width="16" height="17" viewBox="0 0 16 17" fill="none" xmlns="http://www.w3.org/2000/svg">
<g clip-path="url(#clip0_393_1710)">
<path d="M17.2381 5.64351V10.2149H15.7143V5.64351M15.7143 11.7387H17.2381V13.2626H15.7143M8.85714 1.83398C8.453 1.83398 8.06542 1.99453 7.77965 2.2803C7.49388 2.56607 7.33333 2.95365 7.33333 3.35779C7.32799 3.43135 7.32799 3.50519 7.33333 3.57875C5.13905 4.22637 3.52381 6.26827 3.52381 8.69113V13.2626L2 14.7864V15.5483H15.7143V14.7864L14.1905 13.2626V8.69113C14.1905 6.26827 12.5752 4.22637 10.381 3.57875C10.3863 3.50519 10.3863 3.43135 10.381 3.35779C10.381 2.95365 10.2204 2.56607 9.93464 2.2803C9.64887 1.99453 9.26128 1.83398 8.85714 1.83398ZM7.33333 16.3102C7.33333 16.7143 7.49388 17.1019 7.77965 17.3877C8.06542 17.6734 8.453 17.834 8.85714 17.834C9.26128 17.834 9.64887 17.6734 9.93464 17.3877C10.2204 17.1019 10.381 16.7143 10.381 16.3102H7.33333Z" fill="#00011B"/>
</g>
<defs>
<clipPath id="clip0_393_1710">
<rect width="16" height="16" fill="white" transform="translate(0 0.5)"/>
</clipPath>
</defs>
</svg>
