<svg width="28" height="28" viewBox="0 0 28 28" fill="none" xmlns="http://www.w3.org/2000/svg">
<path d="M4.66659 4.66671H8.16658L10.4999 2.33337H17.4999L19.8333 4.66671H23.3333C23.9521 4.66671 24.5456 4.91254 24.9832 5.35012C25.4208 5.78771 25.6666 6.3812 25.6666 7.00004V21C25.6666 21.6189 25.4208 22.2124 24.9832 22.65C24.5456 23.0875 23.9521 23.3334 23.3333 23.3334H4.66659C4.04775 23.3334 3.45425 23.0875 3.01667 22.65C2.57908 22.2124 2.33325 21.6189 2.33325 21V7.00004C2.33325 6.3812 2.57908 5.78771 3.01667 5.35012C3.45425 4.91254 4.04775 4.66671 4.66659 4.66671ZM13.9999 8.16671C12.4528 8.16671 10.9691 8.78129 9.87513 9.87525C8.78117 10.9692 8.16658 12.4529 8.16658 14C8.16658 15.5471 8.78117 17.0309 9.87513 18.1248C10.9691 19.2188 12.4528 19.8334 13.9999 19.8334C15.547 19.8334 17.0307 19.2188 18.1247 18.1248C19.2187 17.0309 19.8333 15.5471 19.8333 14C19.8333 12.4529 19.2187 10.9692 18.1247 9.87525C17.0307 8.78129 15.547 8.16671 13.9999 8.16671ZM13.9999 10.5C14.9282 10.5 15.8184 10.8688 16.4748 11.5252C17.1312 12.1815 17.4999 13.0718 17.4999 14C17.4999 14.9283 17.1312 15.8185 16.4748 16.4749C15.8184 17.1313 14.9282 17.5 13.9999 17.5C13.0717 17.5 12.1814 17.1313 11.525 16.4749C10.8687 15.8185 10.4999 14.9283 10.4999 14C10.4999 13.0718 10.8687 12.1815 11.525 11.5252C12.1814 10.8688 13.0717 10.5 13.9999 10.5Z" fill="#00011B"/>
</svg>
