<svg width="18" height="19" viewBox="0 0 18 19" fill="none" xmlns="http://www.w3.org/2000/svg">
<g clip-path="url(#clip0_343_1996)">
<path d="M16.5 2.75H1.5C1.10218 2.75 0.720644 2.90804 0.43934 3.18934C0.158035 3.47064 0 3.85218 0 4.25L0 14.75C0 15.1478 0.158035 15.5294 0.43934 15.8107C0.720644 16.092 1.10218 16.25 1.5 16.25H16.5C16.8978 16.25 17.2794 16.092 17.5607 15.8107C17.842 15.5294 18 15.1478 18 14.75V4.25C18 3.85218 17.842 3.47064 17.5607 3.18934C17.2794 2.90804 16.8978 2.75 16.5 2.75ZM6 5C6.59674 5 7.16903 5.23705 7.59099 5.65901C8.01295 6.08097 8.25 6.65326 8.25 7.25C8.25 7.84674 8.01295 8.41903 7.59099 8.84099C7.16903 9.26295 6.59674 9.5 6 9.5C5.40326 9.5 4.83097 9.26295 4.40901 8.84099C3.98705 8.41903 3.75 7.84674 3.75 7.25C3.75 6.65326 3.98705 6.08097 4.40901 5.65901C4.83097 5.23705 5.40326 5 6 5ZM10.5 14H1.5V13.25C1.5 11.75 4.5 10.925 6 10.925C7.5 10.925 10.5 11.75 10.5 13.25V14ZM13.3875 11H14.625L15.75 12.5L14.25 14C13.275 13.25 12.5475 12.2075 12.21 11C12.075 10.52 12 10.0175 12 9.5C12 8.9825 12.075 8.48 12.21 8C12.5475 6.785 13.275 5.75 14.25 5L15.75 6.5L14.625 8H13.3875C13.2225 8.4725 13.125 8.975 13.125 9.5C13.125 10.025 13.2225 10.5275 13.3875 11Z" fill="white"/>
</g>
<defs>
<clipPath id="clip0_343_1996">
<rect width="18" height="18" fill="white" transform="translate(0 0.5)"/>
</clipPath>
</defs>
</svg>
