<svg width="18" height="19" viewBox="0 0 18 19" fill="none" xmlns="http://www.w3.org/2000/svg">
<path d="M8.99988 12.125C8.30369 12.125 7.63601 11.8484 7.14372 11.3562C6.65144 10.8639 6.37488 10.1962 6.37488 9.5C6.37488 8.80381 6.65144 8.13613 7.14372 7.64384C7.63601 7.15156 8.30369 6.875 8.99988 6.875C9.69607 6.875 10.3638 7.15156 10.856 7.64384C11.3483 8.13613 11.6249 8.80381 11.6249 9.5C11.6249 10.1962 11.3483 10.8639 10.856 11.3562C10.3638 11.8484 9.69607 12.125 8.99988 12.125ZM14.5724 10.2275C14.6024 9.9875 14.6249 9.7475 14.6249 9.5C14.6249 9.2525 14.6024 9.005 14.5724 8.75L16.1549 7.5275C16.2974 7.415 16.3349 7.2125 16.2449 7.0475L14.7449 4.4525C14.6549 4.2875 14.4524 4.22 14.2874 4.2875L12.4199 5.0375C12.0299 4.745 11.6249 4.49 11.1524 4.3025L10.8749 2.315C10.8449 2.135 10.6874 2 10.4999 2H7.49988C7.31238 2 7.15488 2.135 7.12488 2.315L6.84738 4.3025C6.37488 4.49 5.96988 4.745 5.57988 5.0375L3.71238 4.2875C3.54738 4.22 3.34488 4.2875 3.25488 4.4525L1.75488 7.0475C1.65738 7.2125 1.70238 7.415 1.84488 7.5275L3.42738 8.75C3.39738 9.005 3.37488 9.2525 3.37488 9.5C3.37488 9.7475 3.39738 9.9875 3.42738 10.2275L1.84488 11.4725C1.70238 11.585 1.65738 11.7875 1.75488 11.9525L3.25488 14.5475C3.34488 14.7125 3.54738 14.7725 3.71238 14.7125L5.57988 13.955C5.96988 14.255 6.37488 14.51 6.84738 14.6975L7.12488 16.685C7.15488 16.865 7.31238 17 7.49988 17H10.4999C10.6874 17 10.8449 16.865 10.8749 16.685L11.1524 14.6975C11.6249 14.5025 12.0299 14.255 12.4199 13.955L14.2874 14.7125C14.4524 14.7725 14.6549 14.7125 14.7449 14.5475L16.2449 11.9525C16.3349 11.7875 16.2974 11.585 16.1549 11.4725L14.5724 10.2275Z" fill="#00011B"/>
</svg>
