<svg width="40" height="40" viewBox="0 0 40 40" fill="none" xmlns="http://www.w3.org/2000/svg">
<path d="M25.6875 29.5301C26.1675 29.1738 26.6557 28.828 27.1258 28.4591C28.1589 27.6484 28.9933 26.6595 29.6541 25.5291C29.9339 25.0505 30.1614 24.5413 30.444 23.9843C30.2275 23.9843 30.0891 23.9843 29.9507 23.9843C27.3987 23.9843 24.8467 23.9845 22.2947 23.9843C21.3759 23.9842 20.86 23.4764 20.8596 22.5703C20.8589 21.1251 20.8692 19.6797 20.8561 18.2345C20.8468 17.2079 21.3881 16.7193 22.3618 16.719C26.0596 16.7179 29.7574 16.7186 33.4552 16.7186C34.5099 16.7186 35.5645 16.7185 36.6192 16.7186C37.6977 16.7187 38.2203 17.1744 38.2744 18.2408C38.3302 19.3403 38.3983 20.4458 38.3421 21.5427C38.2776 22.8024 38.0244 24.0436 37.6598 25.258C37.1285 27.0272 36.3551 28.6795 35.3179 30.2085C34.5341 31.3639 33.6621 32.4586 32.5956 33.3516C31.5525 34.2248 30.4031 34.9709 29.2649 35.7462C29.1416 35.5605 29.0562 35.4001 28.9658 35.2425C27.8735 33.3381 26.7804 31.4341 25.6875 29.5301Z" fill="#167EE6"/>
<path d="M10.5356 14.4066C10.2551 15.0365 9.91528 15.6477 9.70938 16.3011C9.46053 17.0908 9.31417 17.914 9.14634 18.7275C9.08475 19.026 9.07396 19.3376 9.0649 19.644C9.0082 21.5618 9.43648 23.3672 10.3383 25.0607C10.4092 25.1937 10.4732 25.3303 10.5128 25.5016C9.88027 25.8854 9.27616 26.234 8.67048 26.5799C7.2126 27.4125 5.75398 28.2439 4.29566 29.0757C3.47597 27.7634 2.93311 26.335 2.49672 24.8573C1.88863 22.7981 1.75815 20.6854 1.89965 18.5692C1.9811 17.3511 2.22245 16.125 2.55221 14.9475C2.86966 13.8139 3.38711 12.7356 3.83145 11.6389C3.93965 11.3719 4.10572 11.1283 4.29532 10.8723C5.03242 11.2654 5.71846 11.6617 6.40657 12.0544C7.78231 12.8395 9.15919 13.6227 10.5356 14.4066Z" fill="#FFD500"/>
<path d="M10.5601 14.39C9.15919 13.6226 7.78231 12.8395 6.40657 12.0543C5.71846 11.6616 5.03242 11.2653 4.32053 10.8592C4.86625 10.008 5.39073 9.13155 6.02131 8.33954C6.58354 7.63336 7.22941 6.98364 7.89783 6.37422C9.32011 5.07747 10.8973 3.99785 12.6918 3.27511C13.584 2.91578 14.4855 2.55885 15.4124 2.31197C16.3304 2.06747 17.2819 1.9353 18.2259 1.80679C18.8115 1.72706 19.4105 1.74588 20.0412 1.76096C20.0779 4.16607 20.0769 6.53071 20.076 8.89534C18.4324 8.91014 16.8597 9.2588 15.383 9.97428C13.9371 10.6749 12.6733 11.6275 11.6717 12.898C11.2937 13.3775 10.946 13.8809 10.5601 14.39Z" fill="#FF4B26"/>
<path d="M4.29773 29.103C5.75398 28.2438 7.2126 27.4125 8.67048 26.5799C9.27616 26.234 9.88027 25.8853 10.5118 25.5291C10.7513 25.8218 10.9583 26.1276 11.1777 26.4243C12.1312 27.7135 13.2889 28.7708 14.6844 29.5743C15.9113 30.2808 17.2278 30.7105 18.6168 30.9257C19.0732 30.9965 19.5416 30.9896 20.0413 31.0583C20.0773 33.4629 20.0767 35.8275 20.0761 38.1921C18.3457 38.2725 16.669 37.9757 15.0088 37.5123C12.8134 36.8995 10.8182 35.8811 9.02391 34.5003C7.18981 33.0888 5.64658 31.3921 4.45707 29.3918C4.40507 29.3044 4.35225 29.2174 4.29773 29.103Z" fill="#12B347"/>
<path d="M20.1121 8.90097C20.0769 6.53075 20.0779 4.16612 20.0774 1.7656C21.9154 1.64377 23.6958 1.95039 25.4514 2.48573C27.2096 3.02186 28.853 3.78788 30.3562 4.84026C30.984 5.2798 31.5873 5.76152 32.1591 6.27184C32.6675 6.7256 32.6456 7.47071 32.1636 7.95521C31.0348 9.08975 29.9016 10.2199 28.7691 11.3507C28.3301 11.789 27.7626 11.8392 27.2365 11.4958C26.5 11.0152 25.7903 10.4834 25.0169 10.0717C23.8507 9.45088 22.593 9.07781 21.2637 8.9862C20.8918 8.96057 20.52 8.93315 20.1121 8.90097Z" fill="#D93F21"/>
<path d="M20.1126 38.1965C20.0767 35.8274 20.0773 33.4628 20.077 31.0624C22.0633 31.0312 23.9025 30.4853 25.6599 29.5314C26.7804 31.4341 27.8735 33.3381 28.9658 35.2424C29.0562 35.4 29.1416 35.5604 29.2384 35.7465C28.3985 36.1922 27.5803 36.6995 26.693 37.0082C25.4776 37.431 24.2234 37.7739 22.96 38.016C22.0448 38.1913 21.0876 38.1472 20.1126 38.1965Z" fill="#0F993E"/>
</svg>
