<svg width="18" height="19" viewBox="0 0 18 19" fill="none" xmlns="http://www.w3.org/2000/svg">
<path d="M6.75002 4.865L5.52002 3.62C6.06752 2.2325 7.41752 1.25 9.00002 1.25C11.07 1.25 12.75 2.93 12.75 5V6.5H13.5C14.3325 6.5 15 7.175 15 8V13.1L8.40002 6.5H11.25V5C11.25 3.755 10.245 2.75 9.00002 2.75C7.80752 2.75 6.83252 3.6875 6.75002 4.865ZM16.5825 16.595L15.63 17.5475L14.595 16.5125C14.325 16.8125 13.935 17 13.5 17H4.50002C3.66752 17 3.00002 16.3325 3.00002 15.5V8C3.00002 7.1675 3.67502 6.5 4.50002 6.5H4.58252L0.83252 2.75L1.79252 1.7975L16.5825 16.595ZM10.3875 12.305L8.44502 10.3625C7.87502 10.58 7.50002 11.12 7.50002 11.75C7.50002 12.5825 8.17502 13.25 9.00002 13.25C9.63002 13.25 10.17 12.875 10.3875 12.305Z" fill="#00011B"/>
</svg>
