<svg width="18" height="19" viewBox="0 0 18 19" fill="none" xmlns="http://www.w3.org/2000/svg">
<path d="M9.7501 2.75H8.2501V10.25H9.7501V2.75ZM13.3726 4.3775L12.3076 5.4425C13.5376 6.4325 14.2501 7.925 14.2501 9.5C14.2501 10.8924 13.697 12.2277 12.7124 13.2123C11.7278 14.1969 10.3925 14.75 9.0001 14.75C6.1051 14.75 3.7501 12.41 3.7501 9.5C3.7501 7.9325 4.4626 6.4325 5.6851 5.435L4.6276 4.3775C1.7851 6.7925 1.4401 11.0525 3.8551 13.895C6.2701 16.73 10.5301 17.075 13.3726 14.66C14.8876 13.3775 15.7501 11.4875 15.7501 9.5C15.7501 7.5275 14.8801 5.6525 13.3726 4.3775Z" fill="#00011B"/>
</svg>
